<svg xmlns="http://www.w3.org/2000/svg" xmlns:xlink="http://www.w3.org/1999/xlink" viewBox="0 0 70.73 64.45"><defs><style>.cls-1{fill:url(#linear-gradient);}.cls-2{fill:#212121;}</style><linearGradient id="linear-gradient" x1="28.97" y1="65.75" x2="75.16" y2="19.56" gradientUnits="userSpaceOnUse"><stop offset="0" stop-color="#7c4dff"/><stop offset="1" stop-color="#448aff"/></linearGradient></defs><g id="Calque_2" data-name="Calque 2"><g id="OBJECTS"><path class="cls-1" d="M70.73,22.12A17,17,0,0,0,58.35,5.82l-7.79,7.79h3.26a8.51,8.51,0,0,1,0,17H47.44V39h6.38a8.51,8.51,0,0,1,0,17H36.07V28.1l-8.41,8.41V64.45H53.82A16.91,16.91,0,0,0,65,34.83,16.88,16.88,0,0,0,70.73,22.12Z"/><polygon class="cls-2" points="34.02 30.15 34.02 56.05 36.07 56.05 36.07 28.1 34.02 30.15"/><polygon points="38.26 8.02 38.26 8.02 46.28 0 34.94 0 18.9 0 26.92 8.02 0 34.94 0 34.94 11.34 34.94 26.04 34.94 34.06 26.92 19.36 26.92 38.26 8.02"/></g></g></svg>